<svg width="1920" height="2219" viewBox="0 0 1920 2219" fill="none" xmlns="http://www.w3.org/2000/svg">
<mask id="mask0_240_4355" style="mask-type:alpha" maskUnits="userSpaceOnUse" x="0" y="0" width="1920" height="2219">
<rect width="1920" height="2219" fill="#D9D9D9"/>
</mask>
<g mask="url(#mask0_240_4355)">
<line x1="1982" y1="0.469356" x2="-59" y2="0.46923" stroke="white" stroke-opacity="0.5" stroke-width="0.938713"/>
<line x1="1982" y1="120.469" x2="-59" y2="120.469" stroke="white" stroke-opacity="0.5" stroke-width="0.938713"/>
<line x1="1982" y1="240.469" x2="-59" y2="240.469" stroke="white" stroke-opacity="0.5" stroke-width="0.938713"/>
<line x1="1982" y1="360.469" x2="-59" y2="360.469" stroke="white" stroke-opacity="0.5" stroke-width="0.938713"/>
<line x1="1982" y1="481.469" x2="-59" y2="481.469" stroke="white" stroke-opacity="0.5" stroke-width="0.938713"/>
<line x1="1982" y1="601.469" x2="-59" y2="601.469" stroke="white" stroke-opacity="0.5" stroke-width="0.938713"/>
<line x1="1982" y1="721.469" x2="-59" y2="721.469" stroke="white" stroke-opacity="0.5" stroke-width="0.938713"/>
<line x1="1982" y1="841.469" x2="-59" y2="841.469" stroke="white" stroke-opacity="0.5" stroke-width="0.938713"/>
<line x1="1982" y1="961.469" x2="-59" y2="961.469" stroke="white" stroke-opacity="0.5" stroke-width="0.938713"/>
<line x1="1982" y1="1081.47" x2="-59" y2="1081.47" stroke="white" stroke-opacity="0.5" stroke-width="0.938713"/>
<line x1="1982" y1="1202.47" x2="-59" y2="1202.47" stroke="white" stroke-opacity="0.5" stroke-width="0.938713"/>
<line x1="1982" y1="1322.47" x2="-59" y2="1322.47" stroke="white" stroke-opacity="0.5" stroke-width="0.938713"/>
<line x1="1982" y1="1442.47" x2="-59" y2="1442.47" stroke="white" stroke-opacity="0.5" stroke-width="0.938713"/>
<line x1="1982" y1="1562.47" x2="-59" y2="1562.47" stroke="white" stroke-opacity="0.5" stroke-width="0.938713"/>
<line x1="1982" y1="1682.47" x2="-59" y2="1682.47" stroke="white" stroke-opacity="0.5" stroke-width="0.938713"/>
<line x1="1982" y1="1802.47" x2="-59" y2="1802.47" stroke="white" stroke-opacity="0.5" stroke-width="0.938713"/>
<line x1="1982" y1="1922.47" x2="-59" y2="1922.47" stroke="white" stroke-opacity="0.5" stroke-width="0.938713"/>
<line x1="1982" y1="1802.47" x2="-59" y2="1802.47" stroke="white" stroke-opacity="0.5" stroke-width="0.938713"/>
<line x1="181.469" y1="0.000244161" x2="181.469" y2="1922" stroke="white" stroke-opacity="0.5" stroke-width="0.938713"/>
<line x1="302.469" y1="0.000244161" x2="302.469" y2="1922" stroke="white" stroke-opacity="0.5" stroke-width="0.938713"/>
<line x1="422.469" y1="0.000244161" x2="422.469" y2="1922" stroke="white" stroke-opacity="0.5" stroke-width="0.938713"/>
<line x1="542.469" y1="0.000244161" x2="542.469" y2="1922" stroke="white" stroke-opacity="0.5" stroke-width="0.938713"/>
<line x1="662.469" y1="0.000244161" x2="662.469" y2="1922" stroke="white" stroke-opacity="0.5" stroke-width="0.938713"/>
<line x1="782.469" y1="0.000244161" x2="782.469" y2="1922" stroke="white" stroke-opacity="0.5" stroke-width="0.938713"/>
<line x1="902.469" y1="0.000244161" x2="902.469" y2="1922" stroke="white" stroke-opacity="0.5" stroke-width="0.938713"/>
<line x1="1023.47" y1="0.000244161" x2="1023.47" y2="1922" stroke="white" stroke-opacity="0.5" stroke-width="0.938713"/>
<line x1="1142.47" y1="0.000244161" x2="1142.47" y2="1922" stroke="white" stroke-opacity="0.5" stroke-width="0.938713"/>
<line x1="1263.47" y1="0.000244161" x2="1263.47" y2="1922" stroke="white" stroke-opacity="0.5" stroke-width="0.938713"/>
<line x1="1383.47" y1="0.000244161" x2="1383.47" y2="1922" stroke="white" stroke-opacity="0.5" stroke-width="0.938713"/>
<line x1="1503.47" y1="0.000244161" x2="1503.47" y2="1922" stroke="white" stroke-opacity="0.5" stroke-width="0.938713"/>
<line x1="1623.47" y1="0.000244161" x2="1623.47" y2="1922" stroke="white" stroke-opacity="0.5" stroke-width="0.938713"/>
<line x1="1743.47" y1="2.04137e-08" x2="1743.47" y2="1922" stroke="white" stroke-opacity="0.5" stroke-width="0.938713"/>
<line x1="1863.47" y1="2.04137e-08" x2="1863.47" y2="1922" stroke="white" stroke-opacity="0.5" stroke-width="0.938713"/>
<line x1="1863.47" y1="0.000244161" x2="1863.47" y2="1922" stroke="white" stroke-opacity="0.5" stroke-width="0.938713"/>
<line x1="62.4694" y1="0.000244161" x2="62.4693" y2="1921" stroke="white" stroke-opacity="0.5" stroke-width="0.938713"/>
<circle cx="61.2934" cy="120.156" r="5.63228" fill="#808080"/>
<circle cx="181.449" cy="120.156" r="5.63228" fill="#808080"/>
<circle cx="301.603" cy="120.156" r="5.63228" fill="#808080"/>
<circle cx="421.759" cy="120.156" r="5.63228" fill="#808080"/>
<circle cx="541.914" cy="120.156" r="5.63228" fill="#808080"/>
<circle cx="662.069" cy="120.156" r="5.63228" fill="#808080"/>
<circle cx="782.224" cy="120.156" r="5.63228" fill="#808080"/>
<circle cx="902.38" cy="120.156" r="5.63228" fill="#808080"/>
<circle cx="1022.54" cy="120.156" r="5.63228" fill="#808080"/>
<circle cx="1142.69" cy="120.156" r="5.63228" fill="#808080"/>
<circle cx="1262.85" cy="120.156" r="5.63228" fill="#808080"/>
<circle cx="61.2934" cy="240.311" r="5.63228" fill="#808080"/>
<circle cx="181.448" cy="240.311" r="5.63228" fill="#808080"/>
<circle cx="301.603" cy="240.311" r="5.63228" fill="#808080"/>
<circle cx="421.759" cy="240.311" r="5.63228" fill="#808080"/>
<circle cx="541.914" cy="240.311" r="5.63228" fill="#808080"/>
<circle cx="662.069" cy="240.311" r="5.63228" fill="#808080"/>
<circle cx="782.224" cy="240.311" r="5.63228" fill="#808080"/>
<circle cx="902.379" cy="240.311" r="5.63228" fill="#808080"/>
<circle cx="1022.54" cy="240.311" r="5.63228" fill="#808080"/>
<circle cx="1142.69" cy="240.311" r="5.63228" fill="#808080"/>
<circle cx="1262.85" cy="240.311" r="5.63228" fill="#808080"/>
<circle cx="61.2934" cy="360.466" r="5.63228" fill="#808080"/>
<circle cx="181.448" cy="360.466" r="5.63228" fill="#808080"/>
<circle cx="301.603" cy="360.466" r="5.63228" fill="#808080"/>
<circle cx="421.759" cy="360.466" r="5.63228" fill="#808080"/>
<circle cx="541.914" cy="360.466" r="5.63228" fill="#808080"/>
<circle cx="662.069" cy="360.466" r="5.63228" fill="#808080"/>
<circle cx="782.224" cy="360.466" r="5.63228" fill="#808080"/>
<circle cx="902.379" cy="360.466" r="5.63228" fill="#808080"/>
<circle cx="1022.54" cy="360.466" r="5.63228" fill="#808080"/>
<circle cx="1142.69" cy="360.466" r="5.63228" fill="#808080"/>
<circle cx="1262.85" cy="360.466" r="5.63228" fill="#808080"/>
<circle cx="1142.63" cy="119.633" r="5.63228" transform="rotate(90 1142.63 119.633)" fill="#808080"/>
<circle cx="1142.63" cy="239.787" r="5.63228" transform="rotate(90 1142.63 239.787)" fill="#808080"/>
<circle cx="1142.63" cy="359.943" r="5.63228" transform="rotate(90 1142.63 359.943)" fill="#808080"/>
<circle cx="1142.63" cy="480.098" r="5.63228" transform="rotate(90 1142.63 480.098)" fill="#808080"/>
<circle cx="1142.63" cy="600.253" r="5.63228" transform="rotate(90 1142.63 600.253)" fill="#808080"/>
<circle cx="1142.63" cy="720.408" r="5.63228" transform="rotate(90 1142.63 720.408)" fill="#808080"/>
<circle cx="1142.63" cy="840.563" r="5.63228" transform="rotate(90 1142.63 840.563)" fill="#808080"/>
<circle cx="1142.63" cy="960.719" r="5.63228" transform="rotate(90 1142.63 960.719)" fill="#808080"/>
<circle cx="1142.63" cy="1080.87" r="5.63228" transform="rotate(90 1142.63 1080.87)" fill="#808080"/>
<circle cx="1142.63" cy="1201.03" r="5.63228" transform="rotate(90 1142.63 1201.03)" fill="#808080"/>
<circle cx="1142.63" cy="1321.18" r="5.63228" transform="rotate(90 1142.63 1321.18)" fill="#808080"/>
<circle cx="1262.63" cy="119.633" r="5.63228" transform="rotate(90 1262.63 119.633)" fill="#808080"/>
<circle cx="1262.63" cy="239.787" r="5.63228" transform="rotate(90 1262.63 239.787)" fill="#808080"/>
<circle cx="1262.63" cy="359.943" r="5.63228" transform="rotate(90 1262.63 359.943)" fill="#808080"/>
<circle cx="1262.63" cy="480.098" r="5.63228" transform="rotate(90 1262.63 480.098)" fill="#808080"/>
<circle cx="1262.63" cy="600.253" r="5.63228" transform="rotate(90 1262.63 600.253)" fill="#808080"/>
<circle cx="1262.63" cy="720.408" r="5.63228" transform="rotate(90 1262.63 720.408)" fill="#808080"/>
<circle cx="1262.63" cy="840.563" r="5.63228" transform="rotate(90 1262.63 840.563)" fill="#808080"/>
<circle cx="1262.63" cy="960.719" r="5.63228" transform="rotate(90 1262.63 960.719)" fill="#808080"/>
<circle cx="1262.63" cy="1080.87" r="5.63228" transform="rotate(90 1262.63 1080.87)" fill="#808080"/>
<circle cx="1262.63" cy="1201.03" r="5.63228" transform="rotate(90 1262.63 1201.03)" fill="#808080"/>
<circle cx="1262.63" cy="1321.18" r="5.63228" transform="rotate(90 1262.63 1321.18)" fill="#808080"/>
<circle cx="1382.63" cy="119.633" r="5.63228" transform="rotate(90 1382.63 119.633)" fill="#808080"/>
<circle cx="1382.63" cy="239.787" r="5.63228" transform="rotate(90 1382.63 239.787)" fill="#808080"/>
<circle cx="1382.63" cy="359.943" r="5.63228" transform="rotate(90 1382.63 359.943)" fill="#808080"/>
<circle cx="1382.63" cy="480.098" r="5.63228" transform="rotate(90 1382.63 480.098)" fill="#808080"/>
<circle cx="1382.63" cy="600.253" r="5.63228" transform="rotate(90 1382.63 600.253)" fill="#808080"/>
<circle cx="1382.63" cy="720.408" r="5.63228" transform="rotate(90 1382.63 720.408)" fill="#808080"/>
<circle cx="1382.63" cy="840.563" r="5.63228" transform="rotate(90 1382.63 840.563)" fill="#808080"/>
<circle cx="1382.63" cy="960.719" r="5.63228" transform="rotate(90 1382.63 960.719)" fill="#808080"/>
<circle cx="1382.63" cy="1080.87" r="5.63228" transform="rotate(90 1382.63 1080.87)" fill="#808080"/>
<circle cx="1382.63" cy="1201.03" r="5.63228" transform="rotate(90 1382.63 1201.03)" fill="#808080"/>
<circle cx="1382.63" cy="1321.63" r="5.63228" transform="rotate(90 1382.63 1321.63)" fill="#808080"/>
<circle cx="1382.63" cy="1442.24" r="5.63228" transform="rotate(90 1382.63 1442.24)" fill="#808080"/>
<circle cx="1382.63" cy="1562.84" r="5.63228" transform="rotate(90 1382.63 1562.84)" fill="#808080"/>
<circle cx="1382.63" cy="1321.18" r="5.63228" transform="rotate(90 1382.63 1321.18)" fill="#808080"/>
<circle cx="1502.63" cy="119.633" r="5.63228" transform="rotate(90 1502.63 119.633)" fill="#808080"/>
<circle cx="1502.63" cy="239.787" r="5.63228" transform="rotate(90 1502.63 239.787)" fill="#808080"/>
<circle cx="1502.63" cy="359.943" r="5.63228" transform="rotate(90 1502.63 359.943)" fill="#808080"/>
<circle cx="1502.63" cy="480.098" r="5.63228" transform="rotate(90 1502.63 480.098)" fill="#808080"/>
<circle cx="1502.63" cy="600.253" r="5.63228" transform="rotate(90 1502.63 600.253)" fill="#808080"/>
<circle cx="1502.63" cy="720.408" r="5.63228" transform="rotate(90 1502.63 720.408)" fill="#808080"/>
<circle cx="1502.63" cy="840.563" r="5.63228" transform="rotate(90 1502.63 840.563)" fill="#808080"/>
<circle cx="1502.63" cy="960.719" r="5.63228" transform="rotate(90 1502.63 960.719)" fill="#808080"/>
<circle cx="1502.63" cy="1080.87" r="5.63228" transform="rotate(90 1502.63 1080.87)" fill="#808080"/>
<circle cx="1502.63" cy="1201.03" r="5.63228" transform="rotate(90 1502.63 1201.03)" fill="#808080"/>
<circle cx="1502.63" cy="1321.18" r="5.63228" transform="rotate(90 1502.63 1321.18)" fill="#808080"/>
<circle cx="1622.63" cy="119.633" r="5.63228" transform="rotate(90 1622.63 119.633)" fill="#808080"/>
<circle cx="1622.63" cy="239.787" r="5.63228" transform="rotate(90 1622.63 239.787)" fill="#808080"/>
<circle cx="1622.63" cy="359.943" r="5.63228" transform="rotate(90 1622.63 359.943)" fill="#808080"/>
<circle cx="1622.63" cy="480.098" r="5.63228" transform="rotate(90 1622.63 480.098)" fill="#808080"/>
<circle cx="1622.63" cy="600.253" r="5.63228" transform="rotate(90 1622.63 600.253)" fill="#808080"/>
<circle cx="1622.63" cy="720.408" r="5.63228" transform="rotate(90 1622.63 720.408)" fill="#808080"/>
<circle cx="1622.63" cy="840.563" r="5.63228" transform="rotate(90 1622.63 840.563)" fill="#808080"/>
<circle cx="1622.63" cy="960.719" r="5.63228" transform="rotate(90 1622.63 960.719)" fill="#808080"/>
<circle cx="1622.63" cy="1080.87" r="5.63228" transform="rotate(90 1622.63 1080.87)" fill="#808080"/>
<circle cx="1622.63" cy="1201.03" r="5.63228" transform="rotate(90 1622.63 1201.03)" fill="#808080"/>
<circle cx="1622.63" cy="1321.18" r="5.63228" transform="rotate(90 1622.63 1321.18)" fill="#808080"/>
<circle cx="1742.63" cy="119.633" r="5.63228" transform="rotate(90 1742.63 119.633)" fill="#808080"/>
<circle cx="1742.63" cy="239.787" r="5.63228" transform="rotate(90 1742.63 239.787)" fill="#808080"/>
<circle cx="1742.63" cy="359.943" r="5.63228" transform="rotate(90 1742.63 359.943)" fill="#808080"/>
<circle cx="1742.63" cy="480.098" r="5.63228" transform="rotate(90 1742.63 480.098)" fill="#808080"/>
<circle cx="1742.63" cy="600.253" r="5.63228" transform="rotate(90 1742.63 600.253)" fill="#808080"/>
<circle cx="1742.63" cy="720.408" r="5.63228" transform="rotate(90 1742.63 720.408)" fill="#808080"/>
<circle cx="1742.63" cy="840.563" r="5.63228" transform="rotate(90 1742.63 840.563)" fill="#808080"/>
<circle cx="1742.63" cy="960.719" r="5.63228" transform="rotate(90 1742.63 960.719)" fill="#808080"/>
<circle cx="1742.63" cy="1080.87" r="5.63228" transform="rotate(90 1742.63 1080.87)" fill="#808080"/>
<circle cx="1742.63" cy="1201.03" r="5.63228" transform="rotate(90 1742.63 1201.03)" fill="#808080"/>
<circle cx="1742.63" cy="1321.18" r="5.63228" transform="rotate(90 1742.63 1321.18)" fill="#808080"/>
<circle cx="1862.63" cy="119.633" r="5.63228" transform="rotate(90 1862.63 119.633)" fill="#808080"/>
<circle cx="1862.63" cy="239.787" r="5.63228" transform="rotate(90 1862.63 239.787)" fill="#808080"/>
<circle cx="1862.63" cy="359.943" r="5.63228" transform="rotate(90 1862.63 359.943)" fill="#808080"/>
<circle cx="1862.63" cy="480.098" r="5.63228" transform="rotate(90 1862.63 480.098)" fill="#808080"/>
<circle cx="1862.63" cy="600.253" r="5.63228" transform="rotate(90 1862.63 600.253)" fill="#808080"/>
<circle cx="1862.63" cy="720.408" r="5.63228" transform="rotate(90 1862.63 720.408)" fill="#808080"/>
<circle cx="1862.63" cy="840.563" r="5.63228" transform="rotate(90 1862.63 840.563)" fill="#808080"/>
<circle cx="1862.63" cy="960.719" r="5.63228" transform="rotate(90 1862.63 960.719)" fill="#808080"/>
<circle cx="1862.63" cy="1080.87" r="5.63228" transform="rotate(90 1862.63 1080.87)" fill="#808080"/>
<circle cx="1862.63" cy="1201.03" r="5.63228" transform="rotate(90 1862.63 1201.03)" fill="#808080"/>
<circle cx="1862.63" cy="1321.18" r="5.63228" transform="rotate(90 1862.63 1321.18)" fill="#808080"/>
<circle cx="61.2934" cy="480.621" r="5.63228" fill="#808080"/>
<circle cx="181.448" cy="480.621" r="5.63228" fill="#808080"/>
<circle cx="301.603" cy="480.621" r="5.63228" fill="#808080"/>
<circle cx="421.759" cy="480.621" r="5.63228" fill="#808080"/>
<circle cx="541.914" cy="480.621" r="5.63228" fill="#808080"/>
<circle cx="662.069" cy="480.621" r="5.63228" fill="#808080"/>
<circle cx="782.224" cy="480.621" r="5.63228" fill="#808080"/>
<circle cx="902.379" cy="480.621" r="5.63228" fill="#808080"/>
<circle cx="1022.54" cy="480.621" r="5.63228" fill="#808080"/>
<circle cx="1142.69" cy="480.621" r="5.63228" fill="#808080"/>
<circle cx="1262.85" cy="480.621" r="5.63228" fill="#808080"/>
<circle cx="61.2934" cy="600.777" r="5.63228" fill="#808080"/>
<circle cx="181.448" cy="600.777" r="5.63228" fill="#808080"/>
<circle cx="301.603" cy="600.777" r="5.63228" fill="#808080"/>
<circle cx="421.759" cy="600.777" r="5.63228" fill="#808080"/>
<circle cx="541.914" cy="600.777" r="5.63228" fill="#808080"/>
<circle cx="662.069" cy="600.777" r="5.63228" fill="#808080"/>
<circle cx="782.224" cy="600.777" r="5.63228" fill="#808080"/>
<circle cx="902.379" cy="600.777" r="5.63228" fill="#808080"/>
<circle cx="1022.54" cy="600.777" r="5.63228" fill="#808080"/>
<circle cx="1142.69" cy="600.777" r="5.63228" fill="#808080"/>
<circle cx="1262.85" cy="600.777" r="5.63228" fill="#808080"/>
<circle cx="61.2934" cy="720.932" r="5.63228" fill="#808080"/>
<circle cx="181.448" cy="720.932" r="5.63228" fill="#808080"/>
<circle cx="301.603" cy="720.932" r="5.63228" fill="#808080"/>
<circle cx="421.759" cy="720.932" r="5.63228" fill="#808080"/>
<circle cx="541.914" cy="720.932" r="5.63228" fill="#808080"/>
<circle cx="662.069" cy="720.932" r="5.63228" fill="#808080"/>
<circle cx="782.224" cy="720.932" r="5.63228" fill="#808080"/>
<circle cx="902.379" cy="720.932" r="5.63228" fill="#808080"/>
<circle cx="1022.54" cy="720.932" r="5.63228" fill="#808080"/>
<circle cx="1142.69" cy="720.932" r="5.63228" fill="#808080"/>
<circle cx="1262.85" cy="720.932" r="5.63228" fill="#808080"/>
<circle cx="61.2934" cy="841.087" r="5.63228" fill="#808080"/>
<circle cx="181.448" cy="841.087" r="5.63228" fill="#808080"/>
<circle cx="301.603" cy="841.087" r="5.63228" fill="#808080"/>
<circle cx="421.759" cy="841.087" r="5.63228" fill="#808080"/>
<circle cx="541.914" cy="841.087" r="5.63228" fill="#808080"/>
<circle cx="662.069" cy="841.087" r="5.63228" fill="#808080"/>
<circle cx="782.224" cy="841.087" r="5.63228" fill="#808080"/>
<circle cx="902.379" cy="841.087" r="5.63228" fill="#808080"/>
<circle cx="1022.54" cy="841.087" r="5.63228" fill="#808080"/>
<circle cx="1142.69" cy="841.087" r="5.63228" fill="#808080"/>
<circle cx="1262.85" cy="841.087" r="5.63228" fill="#808080"/>
<circle cx="61.2934" cy="961.242" r="5.63228" fill="#808080"/>
<circle cx="181.448" cy="961.242" r="5.63228" fill="#808080"/>
<circle cx="301.603" cy="961.242" r="5.63228" fill="#808080"/>
<circle cx="421.759" cy="961.242" r="5.63228" fill="#808080"/>
<circle cx="541.914" cy="961.242" r="5.63228" fill="#808080"/>
<circle cx="662.069" cy="961.242" r="5.63228" fill="#808080"/>
<circle cx="782.224" cy="961.242" r="5.63228" fill="#808080"/>
<circle cx="902.379" cy="961.242" r="5.63228" fill="#808080"/>
<circle cx="1022.54" cy="961.242" r="5.63228" fill="#808080"/>
<circle cx="1142.69" cy="961.242" r="5.63228" fill="#808080"/>
<circle cx="1262.85" cy="961.242" r="5.63228" fill="#808080"/>
<circle cx="61.2934" cy="1081.4" r="5.63228" fill="#808080"/>
<circle cx="181.448" cy="1081.4" r="5.63228" fill="#808080"/>
<circle cx="301.603" cy="1081.4" r="5.63228" fill="#808080"/>
<circle cx="421.759" cy="1081.4" r="5.63228" fill="#808080"/>
<circle cx="541.914" cy="1081.4" r="5.63228" fill="#808080"/>
<circle cx="662.069" cy="1081.4" r="5.63228" fill="#808080"/>
<circle cx="782.224" cy="1081.4" r="5.63228" fill="#808080"/>
<circle cx="902.379" cy="1081.4" r="5.63228" fill="#808080"/>
<circle cx="1022.54" cy="1081.4" r="5.63228" fill="#808080"/>
<circle cx="1142.69" cy="1081.4" r="5.63228" fill="#808080"/>
<circle cx="1262.85" cy="1081.4" r="5.63228" fill="#808080"/>
<circle cx="61.2934" cy="1201.55" r="5.63228" fill="#808080"/>
<circle cx="181.448" cy="1201.55" r="5.63228" fill="#808080"/>
<circle cx="301.603" cy="1201.55" r="5.63228" fill="#808080"/>
<circle cx="421.759" cy="1201.55" r="5.63228" fill="#808080"/>
<circle cx="541.914" cy="1201.55" r="5.63228" fill="#808080"/>
<circle cx="662.069" cy="1201.55" r="5.63228" fill="#808080"/>
<circle cx="782.224" cy="1201.55" r="5.63228" fill="#808080"/>
<circle cx="902.379" cy="1201.55" r="5.63228" fill="#808080"/>
<circle cx="1022.54" cy="1201.55" r="5.63228" fill="#808080"/>
<circle cx="1142.69" cy="1201.55" r="5.63228" fill="#808080"/>
<circle cx="1262.85" cy="1201.55" r="5.63228" fill="#808080"/>
<circle cx="61.2934" cy="1321.71" r="5.63228" fill="#808080"/>
<circle cx="181.448" cy="1321.71" r="5.63228" fill="#808080"/>
<circle cx="301.603" cy="1321.71" r="5.63228" fill="#808080"/>
<circle cx="421.759" cy="1321.71" r="5.63228" fill="#808080"/>
<circle cx="541.914" cy="1321.71" r="5.63228" fill="#808080"/>
<circle cx="662.069" cy="1321.71" r="5.63228" fill="#808080"/>
<circle cx="782.224" cy="1321.71" r="5.63228" fill="#808080"/>
<circle cx="902.379" cy="1321.71" r="5.63228" fill="#808080"/>
<circle cx="1022.54" cy="1321.71" r="5.63228" fill="#808080"/>
<circle cx="1142.69" cy="1321.71" r="5.63228" fill="#808080"/>
<circle cx="1262.85" cy="1321.71" r="5.63228" fill="#808080"/>
<circle cx="61.2934" cy="1441.86" r="5.63228" fill="#808080"/>
<circle cx="181.448" cy="1441.86" r="5.63228" fill="#808080"/>
<circle cx="301.603" cy="1441.86" r="5.63228" fill="#808080"/>
<circle cx="421.759" cy="1441.86" r="5.63228" fill="#808080"/>
<circle cx="541.914" cy="1441.86" r="5.63228" fill="#808080"/>
<circle cx="662.069" cy="1441.86" r="5.63228" fill="#808080"/>
<circle cx="782.224" cy="1441.86" r="5.63228" fill="#808080"/>
<circle cx="902.379" cy="1441.86" r="5.63228" fill="#808080"/>
<circle cx="1022.54" cy="1441.86" r="5.63228" fill="#808080"/>
<circle cx="1142.69" cy="1441.86" r="5.63228" fill="#808080"/>
<circle cx="1262.85" cy="1441.86" r="5.63228" fill="#808080"/>
<circle cx="1382.63" cy="1441.86" r="5.63228" fill="#808080"/>
<circle cx="1382.63" cy="1561.63" r="5.63228" fill="#808080"/>
<circle cx="1382.63" cy="1681.4" r="5.63228" fill="#808080"/>
<circle cx="1382.63" cy="1801.17" r="5.63228" fill="#808080"/>
<circle cx="1502.42" cy="1441.86" r="5.63228" fill="#808080"/>
<circle cx="1502.42" cy="1561.63" r="5.63228" fill="#808080"/>
<circle cx="1502.42" cy="1681.4" r="5.63228" fill="#808080"/>
<circle cx="1502.42" cy="1801.17" r="5.63228" fill="#808080"/>
<circle cx="1622.21" cy="1441.86" r="5.63228" fill="#808080"/>
<circle cx="1622.21" cy="1561.63" r="5.63228" fill="#808080"/>
<circle cx="1622.21" cy="1681.4" r="5.63228" fill="#808080"/>
<circle cx="1622.21" cy="1801.17" r="5.63228" fill="#808080"/>
<circle cx="1741.99" cy="1441.86" r="5.63228" fill="#808080"/>
<circle cx="1741.99" cy="1561.63" r="5.63228" fill="#808080"/>
<circle cx="1741.99" cy="1681.4" r="5.63228" fill="#808080"/>
<circle cx="1741.99" cy="1801.17" r="5.63228" fill="#808080"/>
<circle cx="1861.78" cy="1441.86" r="5.63228" fill="#808080"/>
<circle cx="1861.78" cy="1561.63" r="5.63228" fill="#808080"/>
<circle cx="1861.78" cy="1681.4" r="5.63228" fill="#808080"/>
<circle cx="1861.78" cy="1801.17" r="5.63228" fill="#808080"/>
<circle cx="1861.78" cy="1321.63" r="5.63228" fill="#808080"/>
<circle cx="61.2934" cy="1562.02" r="5.63228" fill="#808080"/>
<circle cx="181.448" cy="1562.02" r="5.63228" fill="#808080"/>
<circle cx="301.603" cy="1562.02" r="5.63228" fill="#808080"/>
<circle cx="421.759" cy="1562.02" r="5.63228" fill="#808080"/>
<circle cx="541.914" cy="1562.02" r="5.63228" fill="#808080"/>
<circle cx="662.069" cy="1562.02" r="5.63228" fill="#808080"/>
<circle cx="782.224" cy="1562.02" r="5.63228" fill="#808080"/>
<circle cx="902.379" cy="1562.02" r="5.63228" fill="#808080"/>
<circle cx="1022.54" cy="1562.02" r="5.63228" fill="#808080"/>
<circle cx="1142.69" cy="1562.02" r="5.63228" fill="#808080"/>
<circle cx="1262.85" cy="1562.02" r="5.63228" fill="#808080"/>
<circle cx="1382.63" cy="1562.02" r="5.63228" fill="#808080"/>
<circle cx="1502.42" cy="1562.02" r="5.63228" fill="#808080"/>
<circle cx="1622.21" cy="1562.02" r="5.63228" fill="#808080"/>
<circle cx="1741.99" cy="1562.02" r="5.63228" fill="#808080"/>
<circle cx="1861.78" cy="1562.02" r="5.63228" fill="#808080"/>
<circle cx="61.2934" cy="1682.17" r="5.63228" fill="#808080"/>
<circle cx="181.448" cy="1682.17" r="5.63228" fill="#808080"/>
<circle cx="301.603" cy="1682.17" r="5.63228" fill="#808080"/>
<circle cx="421.759" cy="1682.17" r="5.63228" fill="#808080"/>
<circle cx="541.914" cy="1682.17" r="5.63228" fill="#808080"/>
<circle cx="662.069" cy="1682.17" r="5.63228" fill="#808080"/>
<circle cx="782.224" cy="1682.17" r="5.63228" fill="#808080"/>
<circle cx="902.379" cy="1682.17" r="5.63228" fill="#808080"/>
<circle cx="1022.54" cy="1682.17" r="5.63228" fill="#808080"/>
<circle cx="1142.69" cy="1682.17" r="5.63228" fill="#808080"/>
<circle cx="1262.85" cy="1682.17" r="5.63228" fill="#808080"/>
<circle cx="61.2934" cy="1802.33" r="5.63228" fill="#808080"/>
<circle cx="181.448" cy="1802.33" r="5.63228" fill="#808080"/>
<circle cx="301.603" cy="1802.33" r="5.63228" fill="#808080"/>
<circle cx="421.759" cy="1802.33" r="5.63228" fill="#808080"/>
<circle cx="541.914" cy="1802.33" r="5.63228" fill="#808080"/>
<circle cx="662.069" cy="1802.33" r="5.63228" fill="#808080"/>
<circle cx="782.224" cy="1802.33" r="5.63228" fill="#808080"/>
<circle cx="902.379" cy="1802.33" r="5.63228" fill="#808080"/>
<circle cx="1022.54" cy="1802.33" r="5.63228" fill="#808080"/>
<circle cx="1142.69" cy="1802.33" r="5.63228" fill="#808080"/>
<circle cx="1262.85" cy="1802.33" r="5.63228" fill="#808080"/>
</g>
</svg>
